<svg width="316" height="90" viewBox="0 0 316 90" fill="none" xmlns="http://www.w3.org/2000/svg">
<path d="M109.557 32.0707C109.794 32.0707 109.991 32.0838 110.149 32.11C110.307 32.1231 110.445 32.1624 110.563 32.2279C110.695 32.2804 110.82 32.3655 110.938 32.4835C111.056 32.5883 111.188 32.7325 111.332 32.916L126.301 51.9257C126.249 51.467 126.209 51.0214 126.183 50.5889C126.17 50.1433 126.163 49.7305 126.163 49.3504V32.0707H130.838V60.4967H128.096C127.675 60.4967 127.327 60.4312 127.051 60.3001C126.775 60.1691 126.505 59.9332 126.242 59.5924L111.332 40.6614C111.372 41.0808 111.398 41.5001 111.411 41.9195C111.437 42.3258 111.451 42.6993 111.451 43.0401V60.4967H106.776V32.0707H109.557Z" fill="white"/>
<path d="M144.677 40.0127C145.952 40.0127 147.123 40.2158 148.188 40.6221C149.266 41.0283 150.193 41.6247 150.968 42.411C151.744 43.1842 152.349 44.1409 152.783 45.2811C153.217 46.4082 153.434 47.6991 153.434 49.1538C153.434 49.5208 153.414 49.8288 153.374 50.0778C153.348 50.3137 153.289 50.5037 153.197 50.6479C153.118 50.7789 153.006 50.8772 152.862 50.9427C152.717 50.9952 152.533 51.0214 152.309 51.0214H139.806C139.95 53.0921 140.509 54.6123 141.482 55.5821C142.455 56.5519 143.743 57.0368 145.348 57.0368C146.136 57.0368 146.814 56.9451 147.379 56.7616C147.957 56.5781 148.457 56.375 148.878 56.1522C149.312 55.9294 149.686 55.7263 150.002 55.5428C150.331 55.3593 150.646 55.2676 150.949 55.2676C151.146 55.2676 151.317 55.3069 151.461 55.3855C151.606 55.4642 151.731 55.5756 151.836 55.7197L153.256 57.489C152.717 58.1181 152.112 58.6488 151.442 59.0813C150.771 59.5007 150.068 59.8414 149.331 60.1036C148.608 60.3526 147.865 60.5295 147.103 60.6343C146.353 60.7392 145.624 60.7916 144.914 60.7916C143.507 60.7916 142.199 60.5623 140.989 60.1036C139.779 59.6318 138.727 58.9437 137.833 58.0394C136.939 57.122 136.236 55.9949 135.723 54.6582C135.21 53.3083 134.954 51.7487 134.954 49.9795C134.954 48.6034 135.177 47.3125 135.625 46.1068C136.072 44.8879 136.709 43.8329 137.538 42.9418C138.379 42.0375 139.398 41.3232 140.594 40.799C141.804 40.2748 143.165 40.0127 144.677 40.0127ZM144.776 43.4922C143.356 43.4922 142.245 43.8919 141.443 44.6914C140.641 45.4908 140.128 46.6244 139.904 48.0923H149.055C149.055 47.4632 148.97 46.8734 148.799 46.323C148.628 45.7595 148.365 45.268 148.01 44.8486C147.655 44.4293 147.208 44.1016 146.669 43.8657C146.13 43.6167 145.499 43.4922 144.776 43.4922Z" fill="white"/>
<path d="M160.984 50.0974L154.337 40.3272H159.031C159.386 40.3272 159.649 40.3796 159.82 40.4845C159.991 40.5762 160.142 40.7335 160.274 40.9563L164.514 47.6991C164.58 47.4763 164.658 47.2535 164.75 47.0307C164.856 46.8079 164.981 46.5851 165.125 46.3623L168.537 41.0546C168.695 40.8056 168.859 40.6221 169.03 40.5041C169.201 40.3862 169.412 40.3272 169.661 40.3272H174.138L167.472 49.8812L174.414 60.4967H169.72C169.365 60.4967 169.076 60.405 168.853 60.2215C168.642 60.038 168.465 59.8283 168.32 59.5924L164.021 52.5744C163.902 53.0462 163.738 53.4394 163.528 53.7539L159.741 59.5924C159.596 59.8152 159.419 60.0249 159.209 60.2215C158.998 60.405 158.735 60.4967 158.42 60.4967H154.061L160.984 50.0974Z" fill="white"/>
<path d="M184.139 60.8113C182.39 60.8113 181.043 60.3198 180.096 59.3369C179.149 58.3408 178.676 56.9713 178.676 55.2283V43.964H176.625C176.362 43.964 176.132 43.8788 175.935 43.7084C175.75 43.5381 175.658 43.2825 175.658 42.9418V41.0152L178.913 40.4845L179.938 34.9801C179.991 34.718 180.109 34.5149 180.293 34.3707C180.49 34.2265 180.734 34.1545 181.023 34.1545H183.547V40.5041H188.872V43.964H183.547V54.8941C183.547 55.5231 183.705 56.0146 184.021 56.3685C184.336 56.7223 184.757 56.8992 185.283 56.8992C185.585 56.8992 185.835 56.8665 186.032 56.8009C186.243 56.7223 186.42 56.6437 186.565 56.565C186.723 56.4864 186.861 56.4143 186.979 56.3488C187.097 56.2702 187.216 56.2308 187.334 56.2308C187.479 56.2308 187.597 56.2702 187.689 56.3488C187.781 56.4143 187.88 56.5192 187.985 56.6633L189.444 59.0223C188.734 59.6121 187.919 60.0577 186.999 60.3591C186.078 60.6605 185.125 60.8113 184.139 60.8113Z" fill="white"/>
<path d="M215.934 37.2408C215.79 37.5291 215.619 37.7323 215.421 37.8502C215.237 37.9682 215.014 38.0272 214.751 38.0272C214.488 38.0272 214.192 37.9289 213.863 37.7323C213.535 37.5226 213.147 37.2932 212.7 37.0442C212.253 36.7952 211.727 36.5724 211.122 36.3759C210.53 36.1662 209.827 36.0613 209.012 36.0613C208.275 36.0613 207.631 36.1531 207.079 36.3365C206.54 36.5069 206.08 36.7494 205.698 37.0639C205.33 37.3784 205.054 37.7585 204.87 38.2041C204.686 38.6366 204.594 39.1149 204.594 39.6391C204.594 40.3075 204.778 40.8645 205.146 41.3101C205.527 41.7557 206.027 42.1358 206.645 42.4503C207.263 42.7648 207.966 43.0466 208.755 43.2956C209.544 43.5446 210.346 43.8133 211.161 44.1016C211.99 44.3768 212.798 44.7045 213.587 45.0845C214.376 45.4515 215.08 45.9233 215.698 46.4999C216.315 47.0635 216.809 47.7581 217.177 48.5837C217.558 49.4094 217.749 50.412 217.749 51.5915C217.749 52.8758 217.525 54.0815 217.078 55.2086C216.644 56.3226 216 57.299 215.145 58.1377C214.304 58.9634 213.272 59.6186 212.049 60.1036C210.826 60.5754 209.426 60.8113 207.848 60.8113C206.941 60.8113 206.047 60.7195 205.166 60.536C204.285 60.3657 203.437 60.1167 202.622 59.789C201.82 59.4614 201.064 59.0682 200.354 58.6095C199.657 58.1508 199.032 57.6397 198.48 57.0762L200.018 54.5402C200.163 54.3567 200.334 54.206 200.531 54.0881C200.742 53.957 200.972 53.8915 201.221 53.8915C201.55 53.8915 201.905 54.0291 202.286 54.3043C202.668 54.5664 203.115 54.8613 203.628 55.189C204.153 55.5166 204.765 55.818 205.462 56.0932C206.172 56.3554 207.02 56.4864 208.006 56.4864C209.518 56.4864 210.688 56.1326 211.516 55.4249C212.345 54.704 212.759 53.6753 212.759 52.3385C212.759 51.5915 212.568 50.9821 212.187 50.5103C211.819 50.0384 211.326 49.6453 210.708 49.3307C210.09 49.0031 209.386 48.7279 208.598 48.5051C207.809 48.2823 207.007 48.0398 206.191 47.7777C205.376 47.5156 204.574 47.2011 203.785 46.8341C202.996 46.4672 202.293 45.9888 201.675 45.3991C201.057 44.8093 200.557 44.0754 200.176 43.1973C199.808 42.3061 199.624 41.2118 199.624 39.9144C199.624 38.879 199.828 37.8699 200.235 36.887C200.656 35.9041 201.261 35.0325 202.05 34.2724C202.852 33.5123 203.831 32.9029 204.988 32.4442C206.145 31.9855 207.467 31.7561 208.953 31.7561C210.636 31.7561 212.187 32.0182 213.607 32.5425C215.027 33.0667 216.237 33.8006 217.236 34.7442L215.934 37.2408Z" fill="white"/>
<path d="M219.056 40.3272H222.921C223.289 40.3272 223.598 40.4124 223.848 40.5828C224.098 40.7531 224.256 40.9694 224.321 41.2315L227.221 52.0043C227.378 52.594 227.503 53.1707 227.595 53.7342C227.7 54.2978 227.799 54.8613 227.891 55.4249C228.036 54.8613 228.187 54.2978 228.345 53.7342C228.516 53.1707 228.693 52.594 228.877 52.0043L232.23 41.1922C232.309 40.9301 232.467 40.7138 232.703 40.5434C232.94 40.3731 233.216 40.2879 233.532 40.2879H235.681C236.036 40.2879 236.332 40.3731 236.569 40.5434C236.806 40.7138 236.963 40.9301 237.042 41.1922L240.356 52.2009C240.526 52.7644 240.678 53.3149 240.809 53.8522C240.954 54.3764 241.092 54.9072 241.223 55.4445C241.315 54.881 241.414 54.3174 241.519 53.7539C241.637 53.1903 241.782 52.6071 241.953 52.0043L244.951 41.2315C245.017 40.9694 245.174 40.7531 245.424 40.5828C245.674 40.4124 245.963 40.3272 246.292 40.3272H249.98L243.57 60.4967H239.646C239.225 60.4967 238.922 60.2084 238.738 59.6318L235.09 47.9743C234.971 47.5943 234.86 47.2142 234.754 46.8341C234.662 46.441 234.583 46.0543 234.518 45.6743C234.439 46.0674 234.353 46.4606 234.261 46.8538C234.169 47.2339 234.064 47.6205 233.946 48.0136L230.258 59.6318C230.074 60.2084 229.719 60.4967 229.193 60.4967H225.465L219.056 40.3272Z" fill="white"/>
<path d="M257.909 40.3272V60.4967H253.038V40.3272H257.909ZM258.639 34.4493C258.639 34.8687 258.553 35.2619 258.382 35.6288C258.211 35.9958 257.981 36.3169 257.692 36.5921C257.416 36.8673 257.087 37.0901 256.706 37.2605C256.325 37.4177 255.917 37.4964 255.483 37.4964C255.062 37.4964 254.661 37.4177 254.28 37.2605C253.912 37.0901 253.59 36.8673 253.314 36.5921C253.038 36.3169 252.814 35.9958 252.643 35.6288C252.485 35.2619 252.406 34.8687 252.406 34.4493C252.406 34.0168 252.485 33.6106 252.643 33.2305C252.814 32.8504 253.038 32.5228 253.314 32.2476C253.59 31.9724 253.912 31.7561 254.28 31.5989C254.661 31.4285 255.062 31.3433 255.483 31.3433C255.917 31.3433 256.325 31.4285 256.706 31.5989C257.087 31.7561 257.416 31.9724 257.692 32.2476C257.981 32.5228 258.211 32.8504 258.382 33.2305C258.553 33.6106 258.639 34.0168 258.639 34.4493Z" fill="white"/>
<path d="M270.077 60.8113C268.328 60.8113 266.98 60.3198 266.034 59.3369C265.087 58.3408 264.614 56.9713 264.614 55.2283V43.964H262.563C262.3 43.964 262.07 43.8788 261.872 43.7084C261.688 43.5381 261.596 43.2825 261.596 42.9418V41.0152L264.85 40.4845L265.876 34.9801C265.929 34.718 266.047 34.5149 266.231 34.3707C266.428 34.2265 266.672 34.1545 266.961 34.1545H269.485V40.5041H274.81V43.964H269.485V54.8941C269.485 55.5231 269.643 56.0146 269.959 56.3685C270.274 56.7223 270.695 56.8992 271.221 56.8992C271.523 56.8992 271.773 56.8665 271.97 56.8009C272.181 56.7223 272.358 56.6437 272.503 56.565C272.66 56.4864 272.799 56.4143 272.917 56.3488C273.035 56.2702 273.154 56.2308 273.272 56.2308C273.416 56.2308 273.535 56.2702 273.627 56.3488C273.719 56.4143 273.818 56.5192 273.923 56.6633L275.382 59.0223C274.672 59.6121 273.857 60.0577 272.937 60.3591C272.016 60.6605 271.063 60.8113 270.077 60.8113Z" fill="white"/>
<path d="M292.904 44.5931C292.759 44.7765 292.615 44.9207 292.47 45.0256C292.339 45.1304 292.141 45.1828 291.879 45.1828C291.629 45.1828 291.385 45.1107 291.149 44.9666C290.912 44.8093 290.629 44.6389 290.301 44.4555C289.972 44.2589 289.578 44.0885 289.117 43.9443C288.67 43.7871 288.112 43.7084 287.441 43.7084C286.586 43.7084 285.837 43.8657 285.193 44.1802C284.548 44.4817 284.009 44.9207 283.575 45.4974C283.155 46.074 282.839 46.7752 282.629 47.6008C282.418 48.4134 282.313 49.3373 282.313 50.3726C282.313 51.4473 282.425 52.404 282.649 53.2428C282.885 54.0815 283.22 54.7892 283.654 55.3659C284.088 55.9294 284.614 56.3619 285.232 56.6633C285.85 56.9517 286.547 57.0958 287.323 57.0958C288.098 57.0958 288.723 57.0041 289.196 56.8206C289.683 56.624 290.09 56.4143 290.419 56.1915C290.748 55.9556 291.03 55.7459 291.267 55.5625C291.517 55.3659 291.793 55.2676 292.095 55.2676C292.49 55.2676 292.786 55.4183 292.983 55.7197L294.383 57.489C293.844 58.1181 293.259 58.6488 292.628 59.0813C291.997 59.5007 291.339 59.8414 290.656 60.1036C289.985 60.3526 289.288 60.5295 288.565 60.6343C287.842 60.7392 287.125 60.7916 286.415 60.7916C285.166 60.7916 283.99 60.5623 282.885 60.1036C281.781 59.6318 280.814 58.9503 279.986 58.0591C279.171 57.1679 278.52 56.0801 278.034 54.7958C277.56 53.4983 277.324 52.0239 277.324 50.3726C277.324 48.8917 277.534 47.5222 277.955 46.264C278.389 44.9928 279.02 43.8985 279.848 42.9811C280.676 42.0506 281.702 41.3232 282.925 40.799C284.147 40.2748 285.554 40.0127 287.145 40.0127C288.657 40.0127 289.979 40.2551 291.109 40.74C292.253 41.2249 293.279 41.9195 294.186 42.8238L292.904 44.5931Z" fill="white"/>
<path d="M297.482 60.4967V31.2843H302.353V42.5093C303.142 41.7623 304.01 41.1594 304.957 40.7007C305.903 40.242 307.014 40.0127 308.29 40.0127C309.394 40.0127 310.374 40.2027 311.228 40.5828C312.083 40.9497 312.793 41.4739 313.358 42.1554C313.937 42.8238 314.371 43.6298 314.66 44.5734C314.963 45.5039 315.114 46.5327 315.114 47.6598V60.4967H310.242V47.6598C310.242 46.4279 309.953 45.4777 309.375 44.8093C308.809 44.1278 307.955 43.7871 306.811 43.7871C305.969 43.7871 305.18 43.9771 304.444 44.3572C303.708 44.7372 303.011 45.2549 302.353 45.9102V60.4967H297.482Z" fill="white"/>
<path d="M117.255 80.5749L115.132 74.9546C114.961 74.5201 114.786 73.968 114.607 73.2984C114.529 73.6332 114.443 73.9431 114.35 74.228C114.257 74.5058 114.171 74.7516 114.093 74.9653L111.97 80.5749H117.255ZM122.004 86.3449H120.064C119.842 86.3449 119.663 86.2914 119.528 86.1846C119.392 86.0706 119.288 85.9317 119.217 85.7679L117.93 82.37H111.284L109.998 85.7679C109.941 85.9103 109.84 86.0421 109.698 86.1632C109.555 86.2843 109.376 86.3449 109.162 86.3449H107.221L113.342 70.9584H115.883L122.004 86.3449Z" fill="#FF9212"/>
<path d="M151.258 82.915C151.394 82.915 151.511 82.9684 151.611 83.0752L152.608 84.1544C151.98 84.9095 151.208 85.4936 150.293 85.9068C149.378 86.3128 148.285 86.5158 147.013 86.5158C145.884 86.5158 144.862 86.3235 143.947 85.9388C143.039 85.547 142.264 85.0057 141.621 84.3147C140.978 83.6166 140.481 82.7867 140.131 81.8251C139.788 80.8634 139.616 79.8056 139.616 78.6516C139.616 77.4976 139.798 76.4398 140.163 75.4782C140.534 74.5094 141.053 73.6795 141.717 72.9885C142.389 72.2905 143.189 71.7491 144.118 71.3644C145.055 70.9798 146.084 70.7874 147.206 70.7874C148.321 70.7874 149.303 70.9691 150.154 71.3324C151.011 71.6885 151.754 72.1658 152.383 72.7642L151.558 73.9288C151.501 74.0072 151.433 74.0749 151.354 74.1318C151.276 74.1888 151.168 74.2173 151.033 74.2173C150.89 74.2173 150.725 74.1532 150.54 74.025C150.361 73.8896 150.129 73.7436 149.843 73.5869C149.564 73.4231 149.21 73.277 148.781 73.1488C148.36 73.0135 147.831 72.9458 147.195 72.9458C146.459 72.9458 145.784 73.074 145.169 73.3305C144.554 73.5869 144.025 73.9609 143.582 74.4524C143.139 74.9439 142.793 75.5423 142.543 76.2475C142.3 76.9527 142.178 77.7541 142.178 78.6516C142.178 79.5563 142.307 80.3648 142.564 81.0771C142.821 81.7823 143.175 82.3807 143.625 82.8722C144.076 83.3566 144.604 83.727 145.212 83.9835C145.819 84.2399 146.473 84.3681 147.174 84.3681C147.602 84.3681 147.985 84.3467 148.321 84.304C148.664 84.2541 148.978 84.1793 149.264 84.0796C149.55 83.9728 149.818 83.841 150.068 83.6843C150.325 83.5276 150.579 83.3352 150.829 83.1073C150.972 82.9791 151.115 82.915 151.258 82.915Z" fill="#FF9212"/>
<path d="M180.095 80.5749L177.973 74.9546C177.801 74.5201 177.626 73.968 177.447 73.2984C177.369 73.6332 177.283 73.9431 177.19 74.228C177.097 74.5058 177.011 74.7516 176.933 74.9653L174.81 80.5749H180.095ZM184.844 86.3449H182.904C182.682 86.3449 182.503 86.2914 182.368 86.1846C182.232 86.0706 182.128 85.9317 182.057 85.7679L180.77 82.37H174.124L172.838 85.7679C172.781 85.9103 172.681 86.0421 172.538 86.1632C172.395 86.2843 172.216 86.3449 172.002 86.3449H170.061L176.182 70.9584H178.723L184.844 86.3449Z" fill="#FF9212"/>
<path d="M217.347 78.6516C217.347 79.7914 217.161 80.8349 216.789 81.7823C216.418 82.7226 215.892 83.5311 215.213 84.2078C214.542 84.8846 213.73 85.4117 212.78 85.7892C211.837 86.1596 210.786 86.3449 209.628 86.3449H203.797V70.9584H209.628C210.786 70.9584 211.837 71.1472 212.78 71.5247C213.73 71.8951 214.542 72.4187 215.213 73.0954C215.892 73.7721 216.418 74.5842 216.789 75.5316C217.161 76.4719 217.347 77.5119 217.347 78.6516ZM214.785 78.6516C214.785 77.7683 214.663 76.9741 214.42 76.2689C214.184 75.5636 213.841 74.9688 213.391 74.4845C212.948 74.0001 212.408 73.6296 211.772 73.3732C211.136 73.1096 210.422 72.9779 209.628 72.9779H206.316V84.3254H209.628C210.422 84.3254 211.136 84.1972 211.772 83.9407C212.408 83.6843 212.948 83.3139 213.391 82.8295C213.841 82.338 214.184 81.7432 214.42 81.0451C214.663 80.3399 214.785 79.542 214.785 78.6516Z" fill="#FF9212"/>
<path d="M246.895 84.3254L246.885 86.3449H237.258V70.9584H246.885V72.9779H239.777V77.6152H245.459V79.5705H239.777V84.3254H246.895Z" fill="#FF9212"/>
<path d="M283.185 70.9584V86.3449H280.977V75.7987C280.977 75.6278 280.981 75.4425 280.988 75.2431C281.002 75.0365 281.02 74.8299 281.041 74.6234L276.078 83.7591C275.885 84.1366 275.589 84.3254 275.188 84.3254H274.835C274.427 84.3254 274.131 84.1366 273.945 83.7591L268.907 74.602C268.928 74.8086 268.942 75.0151 268.949 75.2217C268.964 75.4283 268.971 75.6206 268.971 75.7987V86.3449H266.763V70.9584H268.639C268.86 70.9584 269.032 70.9798 269.153 71.0225C269.275 71.0581 269.385 71.1756 269.485 71.3751L274.438 80.3185C274.545 80.5251 274.645 80.7388 274.738 80.9596C274.838 81.1733 274.927 81.3941 275.006 81.6221C275.092 81.3941 275.181 81.1697 275.274 80.9489C275.374 80.721 275.478 80.5037 275.585 80.2971L280.462 71.3751C280.563 71.1756 280.673 71.0581 280.795 71.0225C280.916 70.9798 281.088 70.9584 281.309 70.9584H283.185Z" fill="#FF9212"/>
<path d="M310.232 80.3185V86.3449H307.734V80.3185L302.095 70.9584H304.293C304.514 70.9584 304.69 71.0118 304.818 71.1187C304.947 71.2255 305.054 71.3609 305.14 71.5247L308.302 77.0382C308.445 77.316 308.574 77.5796 308.688 77.8289C308.809 78.0782 308.917 78.3239 309.01 78.5661C309.088 78.3168 309.185 78.0711 309.299 77.8289C309.413 77.5796 309.542 77.316 309.685 77.0382L312.826 71.5247C312.897 71.3822 313.001 71.254 313.137 71.14C313.272 71.0189 313.448 70.9584 313.662 70.9584H315.87L310.232 80.3185Z" fill="#FF9212"/>
<path d="M77.7396 50.5206L72.2756 36.4381C72.2756 36.4381 70.6364 32.4182 63.7415 30.7843C58.633 29.7131 53.4423 29.0768 48.2256 28.8825L38.8502 29.0467C38.4861 29.0522 38.129 28.9467 37.8268 28.7443C37.5245 28.5419 37.2915 28.2523 37.159 27.9143L35.0949 22.6063C35.0536 22.5001 34.9828 22.4079 34.8906 22.3406C34.7985 22.2732 34.689 22.2336 34.575 22.2263C34.461 22.219 34.3473 22.2444 34.2473 22.2995C34.1473 22.3546 34.0652 22.4371 34.0107 22.5371L22.8834 43.0168C22.839 43.0935 22.8122 43.1791 22.8051 43.2673C22.7979 43.3556 22.8106 43.4443 22.8422 43.5271C22.8737 43.6099 22.9234 43.6846 22.9875 43.7459C23.0516 43.8071 23.1287 43.8534 23.213 43.8813L45.433 51.6617C45.5417 51.7001 45.6593 51.7064 45.7715 51.6798C45.8838 51.6532 45.9859 51.5949 46.0656 51.5117C46.1454 51.4286 46.1993 51.3243 46.2209 51.2113C46.2425 51.0983 46.2309 50.9815 46.1875 50.875L45.3202 48.7916C45.2317 48.5675 45.2009 48.3249 45.2305 48.0859C45.2601 47.8469 45.3492 47.619 45.4897 47.4231C45.6302 47.2272 45.8176 47.0695 46.035 46.9642C46.2523 46.859 46.4925 46.8096 46.7339 46.8206L68.9279 47.7369C68.9279 47.7369 69.4829 47.8752 69.032 48.5582C68.581 49.2411 59.5438 62.3899 56.2047 67.2743C56.1344 67.3829 56.1015 67.5113 56.1107 67.6403C56.12 67.7692 56.1711 67.8916 56.2562 67.9891C56.3413 68.0866 56.4558 68.1539 56.5826 68.1809C56.7094 68.2079 56.8416 68.1931 56.9593 68.1388C60.784 66.3406 69.2574 62.0269 73.8454 57.2203C78.6589 52.2495 77.7396 50.5206 77.7396 50.5206Z" fill="#006FF5"/>
<path d="M0.359859 61.707L5.84114 75.7895C5.84114 75.7895 7.48899 79.8093 14.3753 81.4432C19.4867 82.5147 24.6802 83.151 29.8998 83.3451L39.2665 83.1895C39.6394 83.1669 40.0097 83.2649 40.3223 83.4689C40.6348 83.673 40.8729 83.9722 41.0011 84.322L43.0653 89.6213C43.1081 89.7271 43.1801 89.8187 43.2729 89.8855C43.3657 89.9523 43.4756 89.9916 43.5898 89.9988C43.7041 90.006 43.818 89.9809 43.9186 89.9263C44.0191 89.8718 44.1021 89.79 44.158 89.6904L55.2594 69.2107C55.3038 69.1341 55.3306 69.0485 55.3377 68.9602C55.3448 68.872 55.3322 68.7832 55.3006 68.7005C55.269 68.6177 55.2194 68.543 55.1553 68.4817C55.0911 68.4204 55.0141 68.3742 54.9298 68.3463L32.6664 60.514C32.558 60.4794 32.442 60.4758 32.3316 60.5038C32.2212 60.5317 32.121 60.5901 32.0423 60.6721C31.9636 60.7541 31.9096 60.8566 31.8866 60.9677C31.8635 61.0789 31.8723 61.1943 31.9119 61.3007L32.7358 63.3841C32.824 63.6075 32.8549 63.8493 32.8257 64.0875C32.7965 64.3258 32.7081 64.5531 32.5687 64.7488C32.4292 64.9444 32.2429 65.1024 32.0268 65.2082C31.8107 65.3141 31.5715 65.3646 31.3308 65.3551L9.13684 64.4734C9.13684 64.4734 8.5731 64.335 9.03277 63.6607C9.49243 62.9864 18.5036 49.803 21.8513 44.9533C21.9195 44.8453 21.9512 44.7184 21.9417 44.5912C21.9322 44.464 21.8821 44.3432 21.7986 44.2465C21.7152 44.1498 21.6029 44.0823 21.4781 44.0539C21.3533 44.0255 21.2227 44.0377 21.1055 44.0888C17.2807 45.861 8.7986 50.1402 4.21063 54.9813C-0.576815 59.978 0.359859 61.707 0.359859 61.707Z" fill="#002F68"/>
<path d="M58.399 14.4196C58.399 14.4196 65.7276 13.7367 68.4595 11.1086C71.1915 8.48061 71.6772 6.43178 72.848 0C72.848 0 73.5332 8.47196 76.3172 10.5208C76.3172 10.5208 78.0518 12.7598 87.0629 14.4196C87.0629 14.4196 79.6389 15.1977 77.0978 17.7306C77.0978 17.7306 73.3858 20.3241 72.8914 28.6404C72.8914 28.6404 72.6052 21.0416 68.9886 18.2147C65.9583 15.8506 62.2458 14.5201 58.399 14.4196Z" fill="#FF9212"/>
</svg>
